<?xml version="1.0" standalone="no"?>
<!DOCTYPE svg PUBLIC "-//W3C//DTD SVG 20010904//EN"
 "http://www.w3.org/TR/2001/REC-SVG-20010904/DTD/svg10.dtd">
<svg version="1.0" xmlns="http://www.w3.org/2000/svg"
 width="500.000000pt" height="500.000000pt" viewBox="0 0 500.000000 500.000000"
 preserveAspectRatio="xMidYMid meet">

<g transform="translate(0.000000,500.000000) scale(0.100000,-0.100000)"
fill="#000000" stroke="none">
<path d="M2950 3195 l-595 -595 -80 0 -80 0 515 515 c444 444 513 517 504 532
-6 10 -19 20 -29 22 -22 4 -1095 -1065 -1095 -1091 0 -44 8 -48 102 -48 l90 0
-30 -34 c-31 -35 -34 -71 -8 -88 6 -4 76 -8 156 -8 l145 0 -568 -568 c-312
-312 -567 -574 -567 -583 0 -26 26 -42 47 -30 10 5 281 273 603 595 l585 586
80 0 80 0 -513 -513 c-281 -281 -512 -520 -512 -529 0 -10 10 -22 21 -29 20
-10 63 30 565 532 366 366 544 551 544 564 0 37 -20 45 -109 45 l-85 0 27 28
c31 32 37 86 11 96 -9 3 -79 6 -157 6 l-142 0 568 568 c312 312 567 574 567
583 0 17 -19 39 -34 39 -6 0 -278 -268 -606 -595z m-305 -695 l-29 -30 -145 0
-145 0 29 30 29 30 145 0 145 0 -29 -30z"/>
</g>
</svg>
