<?xml version="1.0" standalone="no"?>
<!DOCTYPE svg PUBLIC "-//W3C//DTD SVG 20010904//EN"
 "http://www.w3.org/TR/2001/REC-SVG-20010904/DTD/svg10.dtd">
<svg version="1.0" xmlns="http://www.w3.org/2000/svg"
 width="500.000000pt" height="500.000000pt" viewBox="0 0 500.000000 500.000000"
 preserveAspectRatio="xMidYMid meet">

<g transform="translate(0.000000,500.000000) scale(0.100000,-0.100000)"
fill="#000000" stroke="none">
<path d="M2405 3869 c-340 -23 -635 -157 -875 -398 -269 -271 -402 -592 -401
-974 1 -336 105 -623 318 -879 35 -43 85 -96 110 -118 l47 -41 -97 -97 c-53
-54 -97 -104 -97 -113 0 -17 19 -39 33 -39 6 0 56 46 113 101 l102 101 85 -56
c144 -96 305 -163 488 -202 106 -23 407 -26 514 -5 196 38 421 136 565 245
277 208 462 498 536 836 26 120 26 419 0 540 -52 239 -147 435 -302 621 -34
41 -82 92 -106 111 l-43 37 98 98 c53 54 97 105 97 114 0 17 -19 39 -33 39 -6
0 -56 -45 -113 -101 l-102 -101 -63 42 c-269 183 -553 261 -874 239z m380
-108 c130 -33 335 -112 335 -130 0 -3 -232 -238 -515 -521 -283 -283 -515
-522 -515 -532 0 -44 8 -48 103 -48 l91 0 -27 -28 c-31 -32 -37 -86 -11 -96 9
-3 79 -6 157 -6 l142 0 -442 -442 -443 -443 -66 65 c-248 245 -384 571 -384
926 0 262 73 499 221 721 66 99 242 275 339 340 158 106 343 180 515 208 128
21 393 13 500 -14z m454 -203 l43 -31 -464 -464 -463 -463 -80 0 -80 0 495
495 c272 272 497 495 500 495 4 0 25 -14 49 -32z m194 -168 c176 -187 284
-397 334 -648 24 -124 24 -378 -1 -492 -91 -420 -367 -764 -743 -929 -191 -83
-310 -106 -538 -105 -167 1 -188 3 -295 31 -99 26 -289 99 -308 118 -3 3 227
239 511 523 284 284 517 525 517 534 0 44 -8 48 -103 48 l-91 0 27 28 c31 32
37 86 11 96 -9 3 -79 6 -157 6 l-142 0 440 440 c242 242 443 440 447 440 3 0
44 -41 91 -90z m-788 -890 l-29 -30 -145 0 -145 0 29 30 29 30 145 0 145 0
-29 -30z m-335 -595 c-272 -272 -498 -495 -501 -495 -3 0 -25 14 -49 31 l-43
31 464 464 464 464 80 0 80 0 -495 -495z"/>
</g>
</svg>
