<?xml version="1.0" standalone="no"?>
<!DOCTYPE svg PUBLIC "-//W3C//DTD SVG 20010904//EN"
 "http://www.w3.org/TR/2001/REC-SVG-20010904/DTD/svg10.dtd">
<svg version="1.0" xmlns="http://www.w3.org/2000/svg"
 width="500.000000pt" height="500.000000pt" viewBox="0 0 500.000000 500.000000"
 preserveAspectRatio="xMidYMid meet">

<g transform="translate(0.000000,500.000000) scale(0.100000,-0.100000)"
fill="#000000" stroke="none">
<path d="M2405 3869 c-340 -23 -635 -157 -875 -398 -207 -208 -337 -457 -384
-734 -22 -127 -22 -352 -1 -467 75 -404 302 -734 650 -946 155 -95 341 -159
532 -185 110 -15 342 -7 443 15 192 42 400 134 540 240 108 81 260 239 325
336 102 154 181 347 216 525 21 107 18 408 -5 515 -149 689 -748 1146 -1441
1099z m380 -108 c191 -47 338 -116 487 -228 261 -197 431 -468 495 -791 24
-124 24 -378 -1 -492 -52 -242 -169 -466 -334 -643 -101 -107 -268 -224 -409
-286 -189 -82 -310 -106 -533 -106 -156 1 -187 4 -282 27 -257 65 -464 182
-634 360 -241 252 -364 557 -364 903 0 264 72 500 221 722 66 99 242 275 339
340 158 106 343 180 515 208 128 20 392 13 500 -14z"/>
</g>
</svg>
